<mxfile host="65bd71144e">
    <diagram id="IPU2YbAbB3PRWN8oXu7o" name="第 1 页">
        <mxGraphModel dx="1524" dy="929" grid="1" gridSize="10" guides="1" tooltips="1" connect="1" arrows="1" fold="1" page="1" pageScale="1" pageWidth="1169" pageHeight="827" math="0" shadow="0">
            <root>
                <mxCell id="0"/>
                <mxCell id="1" parent="0"/>
                <mxCell id="2" value="" style="strokeWidth=1;shadow=0;dashed=0;align=center;html=1;shape=mxgraph.mockup.containers.browserWindow;rSize=0;strokeColor=#666666;strokeColor2=#008cff;strokeColor3=#c4c4c4;mainText=,;recursiveResize=0;" vertex="1" parent="1">
                    <mxGeometry width="1360" height="850" as="geometry"/>
                </mxCell>
                <mxCell id="3" value="Page 1" style="strokeWidth=1;shadow=0;dashed=0;align=center;html=1;shape=mxgraph.mockup.containers.anchor;fontSize=17;fontColor=#666666;align=left;" vertex="1" parent="2">
                    <mxGeometry x="60" y="12" width="110" height="26" as="geometry"/>
                </mxCell>
                <mxCell id="4" value="https://www.draw.io" style="strokeWidth=1;shadow=0;dashed=0;align=center;html=1;shape=mxgraph.mockup.containers.anchor;rSize=0;fontSize=17;fontColor=#666666;align=left;" vertex="1" parent="2">
                    <mxGeometry x="130" y="60" width="250" height="26" as="geometry"/>
                </mxCell>
                <mxCell id="5" value="" style="rounded=0;whiteSpace=wrap;html=1;" vertex="1" parent="2">
                    <mxGeometry y="250" width="200" height="600" as="geometry"/>
                </mxCell>
                <mxCell id="6" value="" style="rounded=0;whiteSpace=wrap;html=1;" vertex="1" parent="2">
                    <mxGeometry x="200" y="190" width="1160" height="660" as="geometry"/>
                </mxCell>
                <mxCell id="7" value="首页" style="rounded=0;whiteSpace=wrap;html=1;fontSize=20;" vertex="1" parent="2">
                    <mxGeometry y="190" width="200" height="70" as="geometry"/>
                </mxCell>
                <mxCell id="8" value="社团成员" style="rounded=0;whiteSpace=wrap;html=1;fontSize=20;" vertex="1" parent="2">
                    <mxGeometry y="260" width="200" height="70" as="geometry"/>
                </mxCell>
                <mxCell id="9" value="社团活动" style="rounded=0;whiteSpace=wrap;html=1;fontSize=20;" vertex="1" parent="2">
                    <mxGeometry y="400" width="200" height="70" as="geometry"/>
                </mxCell>
                <mxCell id="10" value="审批提交" style="rounded=0;whiteSpace=wrap;html=1;fontSize=20;" vertex="1" parent="2">
                    <mxGeometry y="470" width="200" height="70" as="geometry"/>
                </mxCell>
                <mxCell id="11" value="论坛公告" style="rounded=0;whiteSpace=wrap;html=1;fontSize=20;" vertex="1" parent="2">
                    <mxGeometry y="540" width="200" height="70" as="geometry"/>
                </mxCell>
                <mxCell id="12" value="修改信息" style="rounded=0;whiteSpace=wrap;html=1;fontSize=20;" vertex="1" parent="2">
                    <mxGeometry y="610" width="200" height="70" as="geometry"/>
                </mxCell>
                <mxCell id="13" value="返回首页" style="rounded=0;whiteSpace=wrap;html=1;fontSize=20;" vertex="1" parent="2">
                    <mxGeometry y="680" width="200" height="70" as="geometry"/>
                </mxCell>
                <mxCell id="14" value="成员管理&lt;br style=&quot;font-size: 18px;&quot;&gt;审批管理" style="rounded=0;whiteSpace=wrap;html=1;fontSize=18;" vertex="1" parent="2">
                    <mxGeometry x="30" y="330" width="170" height="70" as="geometry"/>
                </mxCell>
                <mxCell id="15" value="Easy社团后台管理" style="text;html=1;strokeColor=none;fillColor=none;align=center;verticalAlign=middle;whiteSpace=wrap;rounded=0;fontSize=32;" vertex="1" parent="2">
                    <mxGeometry y="120" width="330" height="70" as="geometry"/>
                </mxCell>
                <mxCell id="16" value="" style="ellipse;whiteSpace=wrap;html=1;aspect=fixed;fontSize=32;" vertex="1" parent="2">
                    <mxGeometry x="1090" y="120" width="60" height="60" as="geometry"/>
                </mxCell>
                <mxCell id="17" value="admin" style="text;html=1;strokeColor=none;fillColor=none;align=center;verticalAlign=middle;whiteSpace=wrap;rounded=0;fontSize=32;" vertex="1" parent="1">
                    <mxGeometry x="1169" y="130" width="100" height="30" as="geometry"/>
                </mxCell>
            </root>
        </mxGraphModel>
    </diagram>
</mxfile>